<?xml version="1.0" encoding="utf-8"?>
<!-- Generator: Adobe Illustrator 24.3.0, SVG Export Plug-In . SVG Version: 6.00 Build 0)  -->
<svg version="1.1" id="Layer_1" xmlns="http://www.w3.org/2000/svg" xmlns:xlink="http://www.w3.org/1999/xlink" x="0px" y="0px"
	 viewBox="0 0 2000 2000" style="enable-background:new 0 0 2000 2000;" xml:space="preserve">
<style type="text/css">
	.st0{fill:#020817;}
	.st1{fill:url(#SVGID_1_);}
	.st2{fill:url(#SVGID_2_);}
	.st3{fill:url(#SVGID_3_);}
	.st4{fill:url(#SVGID_4_);}
	.st5{fill:url(#SVGID_5_);}
	.st6{fill:url(#SVGID_6_);}
	.st7{fill:url(#SVGID_7_);}
	.st8{fill:url(#SVGID_8_);}
	.st9{fill:url(#SVGID_9_);}
	.st10{fill:url(#SVGID_10_);}
	.st11{fill:url(#SVGID_11_);}
	.st12{fill:#FFFFFF;}
</style>
<rect class="st0" width="2000" height="2000"/>
<g>
	<g>
		<linearGradient id="SVGID_1_" gradientUnits="userSpaceOnUse" x1="782.344" y1="1002.7719" x2="1511.3065" y2="1002.7719">
			<stop  offset="0" style="stop-color:#0B2744"/>
			<stop  offset="1" style="stop-color:#2BA38C"/>
		</linearGradient>
		<path class="st1" d="M866.49,1017.34c-0.85,6.92-3.2,12.84-7.04,17.77c-3.84,4.93-8.84,8.72-15,11.37
			c-6.16,2.65-13.17,3.98-21.04,3.98c-7.11,0-13.62-1.09-19.55-3.27c-5.92-2.18-11.06-5.31-15.42-9.38
			c-4.36-4.07-7.77-9.07-10.23-15c-2.47-5.92-3.7-12.58-3.7-19.97c0-7.49,1.23-14.17,3.7-20.04c2.46-5.87,5.87-10.87,10.23-15
			c4.36-4.12,9.5-7.27,15.42-9.45c5.92-2.18,12.44-3.27,19.55-3.27c7.96,0,15.02,1.35,21.18,4.05c6.16,2.7,11.16,6.54,15,11.51
			c3.84,4.97,6.18,10.92,7.04,17.84h-13.08c-1.23-4.45-3.27-8.24-6.11-11.37c-2.84-3.13-6.3-5.52-10.38-7.18
			c-4.08-1.66-8.62-2.49-13.65-2.49c-6.45,0-12.32,1.37-17.63,4.12c-5.31,2.75-9.55,6.73-12.72,11.94
			c-3.18,5.21-4.76,11.66-4.76,19.33c0,7.58,1.59,14,4.76,19.26c3.17,5.26,7.41,9.24,12.72,11.94c5.31,2.7,11.18,4.05,17.63,4.05
			c5.02,0,9.55-0.8,13.57-2.42c4.03-1.61,7.46-3.98,10.31-7.11s4.93-6.87,6.25-11.23H866.49z"/>
		<linearGradient id="SVGID_2_" gradientUnits="userSpaceOnUse" x1="782.344" y1="1013.4326" x2="1511.3065" y2="1013.4326">
			<stop  offset="0" style="stop-color:#0B2744"/>
			<stop  offset="1" style="stop-color:#2BA38C"/>
		</linearGradient>
		<path class="st2" d="M912.34,1050.32c-6.07,0-11.61-1.56-16.63-4.69c-5.02-3.13-9-7.46-11.94-13.01
			c-2.94-5.54-4.41-11.91-4.41-19.12c0-7.2,1.49-13.58,4.48-19.12c2.98-5.54,7.08-9.9,12.3-13.08c5.21-3.17,11.04-4.76,17.48-4.76
			c7.11,0,12.63,1.66,16.56,4.97c3.93,3.32,6.68,7.77,8.24,13.36c1.56,5.59,2.35,11.8,2.35,18.62c0,3.79-0.48,7.82-1.42,12.08
			c-0.95,4.26-2.47,8.29-4.55,12.08c-2.09,3.79-4.97,6.85-8.67,9.17C922.43,1049.16,917.84,1050.32,912.34,1050.32z M916.18,1038.52
			c5.02,0,9.26-1.11,12.72-3.34c3.46-2.23,6.04-5.24,7.75-9.03c1.71-3.79,2.56-8.01,2.56-12.65c0-5.02-0.88-9.43-2.63-13.22
			c-1.75-3.79-4.36-6.73-7.82-8.81c-3.46-2.08-7.65-3.13-12.58-3.13c-7.39,0-13.1,2.37-17.13,7.11c-4.03,4.74-6.04,10.76-6.04,18.05
			c0,4.93,1,9.26,2.99,13.01c1.99,3.74,4.71,6.68,8.17,8.81C907.63,1037.46,911.63,1038.52,916.18,1038.52z M939.21,977.97h13.65
			v70.93h-12.51c-0.38-3.51-0.66-6.49-0.85-8.95c-0.19-2.46-0.28-4.64-0.28-6.54V977.97z"/>
		<linearGradient id="SVGID_3_" gradientUnits="userSpaceOnUse" x1="782.344" y1="1012.7218" x2="1511.3065" y2="1012.7218">
			<stop  offset="0" style="stop-color:#0B2744"/>
			<stop  offset="1" style="stop-color:#2BA38C"/>
		</linearGradient>
		<path class="st3" d="M970.79,977.97h13.65v70.93h-13.65V977.97z M1008.46,990.05c-4.93,0-9.12,1.14-12.58,3.41
			c-3.46,2.27-6.21,5.07-8.24,8.39c-2.04,3.32-3.39,6.49-4.05,9.52l-0.14-8.1c0.09-0.95,0.36-2.44,0.78-4.48
			c0.43-2.04,1.21-4.34,2.35-6.89c1.14-2.56,2.65-5,4.55-7.32c1.89-2.32,4.26-4.24,7.11-5.76c2.84-1.51,6.25-2.27,10.23-2.27V990.05
			z"/>
		<linearGradient id="SVGID_4_" gradientUnits="userSpaceOnUse" x1="782.344" y1="1013.4326" x2="1511.3065" y2="1013.4326">
			<stop  offset="0" style="stop-color:#0B2744"/>
			<stop  offset="1" style="stop-color:#2BA38C"/>
		</linearGradient>
		<path class="st4" d="M1047.95,1050.32c-6.07,0-11.61-1.56-16.63-4.69c-5.02-3.13-9-7.46-11.94-13.01
			c-2.94-5.54-4.41-11.91-4.41-19.12c0-7.2,1.49-13.58,4.48-19.12c2.98-5.54,7.08-9.9,12.3-13.08c5.21-3.17,11.04-4.76,17.48-4.76
			c7.11,0,12.63,1.66,16.56,4.97c3.93,3.32,6.68,7.77,8.24,13.36c1.56,5.59,2.35,11.8,2.35,18.62c0,3.79-0.48,7.82-1.42,12.08
			c-0.95,4.26-2.47,8.29-4.55,12.08c-2.09,3.79-4.97,6.85-8.67,9.17C1058.04,1049.16,1053.44,1050.32,1047.95,1050.32z
			 M1051.78,1038.52c5.02,0,9.26-1.11,12.72-3.34c3.46-2.23,6.04-5.24,7.75-9.03c1.71-3.79,2.56-8.01,2.56-12.65
			c0-5.02-0.88-9.43-2.63-13.22c-1.75-3.79-4.36-6.73-7.82-8.81c-3.46-2.08-7.65-3.13-12.58-3.13c-7.39,0-13.1,2.37-17.13,7.11
			c-4.03,4.74-6.04,10.76-6.04,18.05c0,4.93,1,9.26,2.99,13.01c1.99,3.74,4.71,6.68,8.17,8.81
			C1043.23,1037.46,1047.24,1038.52,1051.78,1038.52z M1074.81,977.97h13.65v70.93h-12.51c-0.38-3.51-0.66-6.49-0.85-8.95
			c-0.19-2.46-0.28-4.64-0.28-6.54V977.97z"/>
		<linearGradient id="SVGID_5_" gradientUnits="userSpaceOnUse" x1="782.344" y1="1013.4326" x2="1511.3065" y2="1013.4326">
			<stop  offset="0" style="stop-color:#0B2744"/>
			<stop  offset="1" style="stop-color:#2BA38C"/>
		</linearGradient>
		<path class="st5" d="M1136.77,1038.38h-4.41l23.03-60.41h14.78l-29.14,70.93h-12.79l-28.86-70.93h14.93L1136.77,1038.38z"/>
		<linearGradient id="SVGID_6_" gradientUnits="userSpaceOnUse" x1="782.344" y1="1013.5037" x2="1511.3065" y2="1013.5037">
			<stop  offset="0" style="stop-color:#0B2744"/>
			<stop  offset="1" style="stop-color:#2BA38C"/>
		</linearGradient>
		<path class="st6" d="M1233.22,1025.87h12.94c-0.76,4.64-2.56,8.81-5.4,12.51c-2.84,3.7-6.59,6.63-11.23,8.81
			c-4.64,2.18-10.09,3.27-16.35,3.27c-7.39,0-13.98-1.56-19.76-4.69c-5.78-3.13-10.33-7.44-13.65-12.93
			c-3.32-5.49-4.98-11.89-4.98-19.19c0-7.39,1.61-13.86,4.83-19.4c3.22-5.54,7.68-9.88,13.36-13.01c5.69-3.13,12.18-4.69,19.47-4.69
			c7.68,0,14.12,1.52,19.33,4.55c5.21,3.03,9.07,7.51,11.58,13.43c2.51,5.92,3.53,13.29,3.06,22.1h-58.14
			c0.47,4.26,1.78,8.06,3.91,11.37c2.13,3.32,4.98,5.92,8.53,7.82c3.55,1.9,7.65,2.84,12.3,2.84c5.21,0,9.57-1.18,13.08-3.55
			C1229.62,1032.74,1231.99,1029.66,1233.22,1025.87z M1212.61,988.2c-6.16,0-11.28,1.64-15.35,4.9c-4.08,3.27-6.78,7.6-8.1,13.01
			h43.64c-0.38-5.78-2.47-10.21-6.25-13.29C1222.75,989.74,1218.1,988.2,1212.61,988.2z"/>
		<linearGradient id="SVGID_7_" gradientUnits="userSpaceOnUse" x1="782.344" y1="999.2181" x2="1511.3065" y2="999.2181">
			<stop  offset="0" style="stop-color:#0B2744"/>
			<stop  offset="1" style="stop-color:#2BA38C"/>
		</linearGradient>
		<path class="st7" d="M1262.19,949.54h13.65v99.36h-13.65V949.54z"/>
		<linearGradient id="SVGID_8_" gradientUnits="userSpaceOnUse" x1="782.344" y1="1013.4326" x2="1511.3065" y2="1013.4326">
			<stop  offset="0" style="stop-color:#0B2744"/>
			<stop  offset="1" style="stop-color:#2BA38C"/>
		</linearGradient>
		<path class="st8" d="M1324.33,1050.32c-6.07,0-11.61-1.56-16.63-4.69c-5.02-3.13-9-7.46-11.94-13.01
			c-2.94-5.54-4.41-11.91-4.41-19.12c0-7.2,1.49-13.58,4.48-19.12c2.98-5.54,7.08-9.9,12.3-13.08c5.21-3.17,11.04-4.76,17.48-4.76
			c7.11,0,12.63,1.66,16.56,4.97c3.93,3.32,6.68,7.77,8.24,13.36c1.56,5.59,2.35,11.8,2.35,18.62c0,3.79-0.48,7.82-1.42,12.08
			c-0.95,4.26-2.47,8.29-4.55,12.08c-2.09,3.79-4.97,6.85-8.67,9.17C1334.42,1049.16,1329.83,1050.32,1324.33,1050.32z
			 M1328.17,1038.52c5.02,0,9.26-1.11,12.72-3.34c3.46-2.23,6.04-5.24,7.75-9.03c1.71-3.79,2.56-8.01,2.56-12.65
			c0-5.02-0.88-9.43-2.63-13.22c-1.75-3.79-4.36-6.73-7.82-8.81c-3.46-2.08-7.65-3.13-12.58-3.13c-7.39,0-13.1,2.37-17.13,7.11
			c-4.03,4.74-6.04,10.76-6.04,18.05c0,4.93,1,9.26,2.99,13.01c1.99,3.74,4.71,6.68,8.17,8.81
			C1319.62,1037.46,1323.62,1038.52,1328.17,1038.52z M1351.2,977.97h13.65v70.93h-12.51c-0.38-3.51-0.66-6.49-0.85-8.95
			c-0.19-2.46-0.28-4.64-0.28-6.54V977.97z"/>
		<linearGradient id="SVGID_9_" gradientUnits="userSpaceOnUse" x1="782.344" y1="1002.7712" x2="1511.3065" y2="1002.7712">
			<stop  offset="0" style="stop-color:#0B2744"/>
			<stop  offset="1" style="stop-color:#2BA38C"/>
		</linearGradient>
		<path class="st9" d="M1413.31,1048.9l37.67-92.25h14.5l37.95,92.25h-14.78l-32.98-83.3h5.12l-32.84,83.3H1413.31z
			 M1433.36,1026.01v-12.22h49.47v12.22H1433.36z"/>
		<linearGradient id="SVGID_10_" gradientUnits="userSpaceOnUse" x1="782.344" y1="1002.7712" x2="1511.3065" y2="1002.7712">
			<stop  offset="0" style="stop-color:#0B2744"/>
			<stop  offset="1" style="stop-color:#2BA38C"/>
		</linearGradient>
		<path class="st10" d="M1518.67,956.64h13.65v92.25h-13.65V956.64z"/>
	</g>
	<g>
		<linearGradient id="SVGID_11_" gradientUnits="userSpaceOnUse" x1="467.6836" y1="1000" x2="715.1478" y2="1000">
			<stop  offset="0" style="stop-color:#0B2744"/>
			<stop  offset="1" style="stop-color:#2BA38C"/>
		</linearGradient>
		<path class="st11" d="M661.96,1123.73H520.87c-29.38,0-53.19-23.81-53.19-53.19V929.46c0-29.38,23.81-53.19,53.19-53.19h141.08
			c29.38,0,53.19,23.81,53.19,53.19v141.08C715.15,1099.92,691.33,1123.73,661.96,1123.73z"/>
		<g>
			<path class="st12" d="M666.43,1004.58v-2.79l-40.7,9.49v-12.72h21.63c6.43-5.15,10.3-11.75,10.3-18.93
				c0-7.18-3.86-13.77-10.3-18.93h-21.63v-8.49c0-1.4-1.14-2.54-2.54-2.54c-1.4,0-2.54,1.14-2.54,2.54v8.49h-0.03v11.21
				c0.61,0.4,1.01,1.08,1.01,1.86c0,1.23-1,2.23-2.23,2.23c-1.23,0-2.23-1-2.23-2.23c0-0.78,0.4-1.46,1.01-1.86V960.7h-26.75
				c6.43,5.15,10.3,11.75,10.3,18.93c0,7.18-3.86,13.77-10.3,18.93h29.23v13.9l-4.62,1.08c-2.09,6.47-7.4,11.36-14.01,12.91
				l-26.3,6.14v-14.24h9.2c5.44-4.37,9.05-9.75,10.03-15.65h-15.28l9.18-7.36c1.49-1.19,3.08-2.67,4.49-4.44
				c-1.75-3.85-4.64-7.38-8.42-10.41h-9.2v-11.88h17.79c-1.46-1.87-3.12-3.44-4.67-4.68l-9.18-7.35h26.76
				c0.81-2.22,1.23-4.52,1.23-6.9c0-7.19-3.86-13.78-10.3-18.93H575.7v-8.49c0-1.4-1.14-2.54-2.54-2.54s-2.54,1.14-2.54,2.54v0.48
				v19.76c0.61,0.4,1.01,1.08,1.01,1.86c0,1.23-1,2.23-2.23,2.23c-1.23,0-2.23-1-2.23-2.23c0-0.78,0.4-1.46,1.01-1.86v-11.75h-26.78
				c6.43,5.15,10.3,11.74,10.3,18.93c0,7.18-3.86,13.78-10.3,18.93h29.22v6.95v19.76c0.61,0.4,1.01,1.08,1.01,1.86
				c0,1.23-1,2.23-2.23,2.23c-1.23,0-2.23-1-2.23-2.23c0-0.78,0.4-1.46,1.01-1.86v-14.84h-39.21c6.43,5.15,10.3,11.74,10.3,18.93
				c0,7.18-3.86,13.77-10.3,18.93h41.66v15.43l-3,0.7c-6.35,1.48-13.02-0.34-17.74-4.84l-0.56-0.53l-30.5,7.12l10.53,25.35
				c-1.21-0.17-2.41-0.35-3.61-0.57c-3.12-0.51-6.2-1.27-9.33-2c1.4,0.78,2.81,1.56,4.26,2.26c1.46,0.67,2.93,1.37,4.44,1.94
				c2.99,1.26,6.12,2.17,9.27,3.03c6.34,1.56,12.91,2.37,19.46,2.43c13.15,0.18,26.02-2.28,38.43-4.92
				c12.44-2.65,24.6-5.5,36.94-6.51c6.16-0.53,12.35-0.59,18.57-0.05c3.11,0.26,6.21,0.69,9.32,1.22c3.11,0.55,6.21,1.25,9.33,2.02
				c-5.56-3.22-11.65-5.62-17.98-7.23c-6.34-1.6-12.91-2.34-19.46-2.43c-0.56-0.01-1.12,0-1.69,0l14.36-35.99L666.43,1004.58z
				 M608.4,1030.42c1.86,0,3.37,1.51,3.37,3.37c0,1.86-1.51,3.37-3.37,3.37c-1.86,0-3.37-1.51-3.37-3.37
				C605.02,1031.93,606.53,1030.42,608.4,1030.42z M586.6,1036.74c1.86,0,3.37,1.51,3.37,3.37s-1.51,3.37-3.37,3.37
				s-3.37-1.51-3.37-3.37S584.74,1036.74,586.6,1036.74z M564.8,1043.06c1.86,0,3.37,1.51,3.37,3.37c0,1.86-1.51,3.37-3.37,3.37
				s-3.37-1.51-3.37-3.37C561.43,1044.57,562.94,1043.06,564.8,1043.06z"/>
			<path class="st12" d="M622.75,1066.53c-10.1-0.13-19.99,1.75-29.52,3.76c-9.56,2.02-18.9,4.23-28.37,4.99
				c-4.73,0.42-9.49,0.42-14.26,0.05c-2.38-0.23-4.78-0.5-7.16-0.94c-2.4-0.4-4.76-0.98-7.17-1.54c1.08,0.6,2.16,1.2,3.28,1.74
				c1.12,0.51,2.25,1.05,3.41,1.49c2.3,0.97,4.7,1.67,7.12,2.33c4.87,1.2,9.92,1.82,14.95,1.86c10.1,0.14,19.99-1.75,29.52-3.78
				c9.56-2.03,18.9-4.22,28.38-5c4.73-0.4,9.49-0.45,14.26-0.04c2.39,0.2,4.77,0.53,7.16,0.94c2.39,0.42,4.77,0.96,7.17,1.55
				c-4.27-2.47-8.95-4.31-13.81-5.55C632.83,1067.17,627.78,1066.6,622.75,1066.53z"/>
		</g>
	</g>
</g>
</svg>
